<svg version="1.0" xmlns="http://www.w3.org/2000/svg"
 width="500.000000pt" height="500.000000pt" viewBox="0 0 500.000000 500.000000"
 preserveAspectRatio="xMidYMid meet">
<metadata>
</metadata>
<g transform="translate(0.000000,500.000000) scale(0.100000,-0.100000)"
fill="#000000" stroke="none">
<path d="M2913 4013 c-24 -2 -43 -8 -43 -13 0 -4 -22 -11 -50 -15 -27 -4 -50
-11 -50 -16 0 -5 -6 -9 -14 -9 -20 0 -136 -61 -136 -71 0 -5 -6 -9 -13 -9 -23
0 -111 -77 -262 -230 -54 -55 -61 -60 -82 -60 -15 0 -22 -8 -27 -31 -3 -16
-11 -36 -18 -43 -7 -8 -20 -24 -28 -36 -19 -29 -61 -71 -90 -90 -12 -8 -28
-20 -34 -26 -10 -9 -55 -35 -96 -54 -8 -4 -17 -18 -18 -31 -2 -13 -20 -41 -40
-61 -21 -21 -50 -51 -66 -68 -24 -26 -33 -30 -60 -24 -17 3 -35 10 -41 15 -26
25 -100 -4 -152 -58 -31 -33 -53 -42 -53 -23 0 6 -11 10 -25 10 -14 0 -25 4
-25 9 0 5 -18 12 -40 16 -22 4 -40 11 -40 15 0 5 -13 11 -30 15 -16 4 -30 10
-30 15 0 4 -11 11 -25 14 -27 7 -43 18 -109 78 -22 21 -44 38 -47 38 -4 0 -10
11 -13 25 -4 14 -11 25 -16 25 -6 0 -10 6 -10 14 0 8 -6 21 -13 28 -6 7 -21
32 -32 55 -11 24 -23 43 -27 43 -3 0 -9 13 -13 30 -4 16 -11 32 -16 35 -5 4
-9 13 -9 22 0 8 -6 29 -14 46 -20 46 -46 133 -46 154 0 34 -24 57 -52 50 -20
-5 -27 -15 -32 -46 -3 -21 -13 -51 -21 -67 -8 -16 -15 -37 -15 -46 0 -10 -4
-18 -8 -18 -4 0 -16 -22 -27 -50 -11 -27 -23 -50 -27 -50 -4 0 -8 -6 -8 -13 0
-12 -7 -23 -49 -73 -5 -6 -12 -20 -15 -32 -4 -12 -11 -22 -16 -22 -9 0 -65
-53 -72 -67 -5 -13 -161 -113 -175 -113 -7 0 -13 -3 -13 -7 0 -9 -48 -33 -64
-33 -6 0 -23 -6 -38 -14 -15 -8 -42 -17 -60 -21 -18 -4 -37 -11 -43 -15 -5 -5
-23 -10 -40 -12 -24 -2 -31 -8 -33 -30 -2 -20 1 -28 12 -28 9 0 16 -4 16 -10
0 -5 8 -10 18 -10 22 0 146 -43 150 -52 2 -4 19 -10 38 -14 19 -3 34 -10 34
-15 0 -5 9 -9 19 -9 11 0 21 -3 23 -7 1 -5 29 -26 61 -47 32 -22 68 -53 80
-69 12 -15 30 -38 39 -49 10 -12 18 -27 18 -35 0 -7 5 -13 10 -13 6 0 10 -7
10 -15 0 -8 5 -15 10 -15 6 0 10 -8 10 -17 1 -10 9 -36 20 -58 11 -22 19 -48
20 -57 0 -9 4 -19 9 -22 5 -4 12 -24 16 -46 4 -22 11 -42 16 -46 5 -3 9 -13 9
-23 0 -10 7 -42 17 -70 14 -46 19 -51 45 -51 21 0 28 5 28 19 0 11 4 22 9 25
5 4 12 25 16 48 4 23 11 49 15 58 4 8 30 60 56 115 27 55 53 105 59 112 31 37
35 43 35 47 0 21 151 136 178 136 5 0 12 3 14 8 3 7 47 30 113 57 22 9 48 21
57 26 40 21 58 7 39 -30 -21 -39 12 -89 158 -235 111 -111 140 -146 135 -161
-10 -26 -103 -115 -120 -115 -8 0 -14 -3 -14 -8 0 -13 -96 -58 -179 -83 -24
-7 -45 -19 -48 -26 -7 -19 24 -40 71 -47 21 -4 48 -13 59 -21 12 -8 29 -15 39
-15 10 0 18 -4 18 -10 0 -5 5 -10 10 -10 12 0 29 -12 73 -56 45 -45 55 -59 63
-88 3 -15 10 -29 15 -32 5 -3 9 -13 9 -22 0 -9 6 -29 14 -43 7 -14 16 -43 20
-64 4 -20 13 -47 19 -59 7 -11 13 -23 14 -24 6 -12 43 13 43 28 0 19 40 131
50 140 3 3 14 22 25 44 11 21 35 56 55 77 35 38 137 99 165 99 8 0 15 4 15 9
0 5 19 12 42 16 86 15 103 50 38 78 -22 9 -44 17 -48 17 -15 0 -62 25 -62 33
0 4 -6 7 -13 7 -8 0 -24 9 -36 19 -13 11 -28 22 -33 23 -6 2 17 31 52 63 86
82 110 122 110 185 0 27 -4 50 -9 50 -19 0 -20 44 -1 62 11 10 22 18 26 18 4
0 15 6 23 13 25 22 106 40 142 32 24 -5 73 -49 196 -172 l164 -165 -23 -26
c-13 -14 -33 -35 -46 -46 -13 -12 -35 -34 -50 -49 -15 -15 -47 -47 -71 -70
-24 -23 -55 -55 -70 -71 -14 -16 -38 -41 -54 -55 -15 -14 -40 -39 -55 -54 -15
-15 -47 -47 -71 -70 -24 -23 -55 -55 -70 -71 -14 -16 -38 -41 -54 -55 -15 -14
-40 -39 -55 -54 -15 -15 -47 -47 -71 -70 -24 -23 -55 -55 -70 -71 -14 -16 -38
-40 -53 -55 -44 -42 -81 -79 -109 -108 -14 -16 -39 -40 -55 -54 -45 -40 -77
-80 -99 -124 -11 -22 -24 -43 -30 -47 -15 -11 -13 -260 3 -265 6 -3 12 -11 12
-19 0 -51 149 -194 202 -194 9 0 18 -5 20 -11 5 -16 220 -17 226 -1 2 7 14 12
26 12 13 0 43 14 67 31 37 27 402 381 532 517 23 24 87 87 141 140 54 54 111
110 125 126 14 16 39 41 55 55 16 14 72 70 125 123 53 54 100 98 104 98 4 0
247 -239 539 -531 292 -292 548 -541 567 -553 46 -29 107 -46 161 -46 48 0
120 19 120 32 0 4 6 8 14 8 24 0 83 63 111 117 39 80 34 174 -17 268 -9 17
-257 271 -552 565 -295 294 -535 539 -533 543 1 5 68 73 147 153 l144 144 137
-1 c80 0 146 4 158 10 11 6 29 11 41 11 12 0 38 7 58 16 77 34 107 49 110 57
2 4 8 7 13 7 34 0 191 151 235 225 54 90 85 176 96 264 18 150 -1 218 -67 241
-54 18 -85 -1 -216 -132 -160 -161 -171 -168 -248 -168 -34 0 -69 4 -79 9 -94
46 -157 98 -199 165 -41 64 -68 196 -43 211 6 3 10 13 10 21 0 9 63 78 140
154 79 79 142 149 146 164 11 47 -4 89 -41 115 -34 23 -41 23 -155 19 -66 -3
-125 -10 -132 -16 -7 -5 -30 -13 -50 -17 -21 -4 -38 -11 -38 -15 0 -5 -13 -11
-30 -15 -16 -4 -30 -11 -30 -16 0 -5 -7 -9 -15 -9 -8 0 -15 -4 -15 -10 0 -5
-6 -10 -13 -10 -22 0 -113 -80 -157 -138 -14 -18 -33 -43 -42 -54 -33 -39 -69
-127 -109 -264 -12 -42 -11 -248 1 -260 7 -7 -38 -60 -144 -169 l-155 -158
-162 162 c-173 173 -168 166 -186 289 -6 45 19 175 44 222 7 14 13 28 13 32 0
14 148 156 169 163 12 3 21 10 21 14 0 4 17 15 38 24 82 36 138 47 245 47 130
0 167 14 167 61 0 35 -39 79 -69 79 -11 0 -22 4 -25 9 -4 5 -25 12 -49 16 -23
4 -48 12 -55 18 -14 11 -326 19 -409 10z m1332 -33 c36 -33 48 -66 34 -93 -6
-12 -75 -86 -153 -165 l-141 -142 -3 -79 c-4 -68 -1 -87 21 -134 48 -104 143
-186 247 -213 62 -16 123 -13 165 8 11 6 83 73 161 149 158 157 176 165 229
109 26 -27 30 -40 33 -100 8 -135 -47 -295 -143 -416 -149 -186 -396 -288
-620 -255 l-70 10 -165 -164 -165 -164 -255 254 -255 255 160 160 159 159 1
158 c0 147 2 163 28 233 68 184 185 313 361 396 92 44 182 64 273 61 61 -2 76
-6 98 -27z m-3295 -273 c16 -67 74 -215 118 -297 49 -91 88 -147 140 -196 48
-47 212 -132 307 -160 72 -21 98 -40 75 -54 -8 -5 -31 -12 -50 -15 -89 -15
-278 -95 -366 -156 -123 -84 -216 -227 -285 -439 -15 -47 -33 -85 -40 -85 -7
0 -32 63 -59 146 -68 214 -124 323 -201 393 -73 65 -215 141 -342 182 -48 15
-86 33 -84 38 2 6 58 28 124 51 66 23 155 61 198 86 102 58 223 171 281 264
42 68 114 223 114 246 0 5 7 26 16 47 14 34 16 36 29 19 7 -10 19 -42 25 -70z
m1340 -191 c24 -74 66 -144 105 -174 15 -12 54 -32 87 -43 32 -12 57 -26 56
-31 -2 -5 -33 -19 -69 -31 -111 -38 -173 -99 -210 -210 -10 -29 -21 -52 -25
-52 -4 0 -21 40 -38 90 -35 101 -74 149 -148 179 -100 42 -107 50 -59 59 42 9
144 72 179 111 16 19 45 64 62 100 18 36 34 66 36 66 1 0 12 -29 24 -64z
m-380 -862 c36 -133 116 -266 186 -313 27 -17 81 -44 121 -59 40 -15 73 -30
73 -34 0 -3 -30 -16 -67 -28 -200 -64 -299 -161 -359 -352 -10 -32 -21 -58
-25 -58 -3 0 -19 39 -34 87 -68 219 -138 294 -332 357 -29 10 -53 21 -53 26 0
4 21 13 48 19 26 7 81 28 122 48 125 60 211 165 260 318 7 22 15 44 17 48 11
19 27 -3 43 -59z m1139 -438 l254 -254 -534 -535 c-600 -601 -582 -586 -729
-595 -158 -9 -282 64 -349 208 -22 46 -26 69 -26 145 0 157 -21 131 594 748
294 295 536 537 536 537 0 0 114 -114 254 -254z"/>
<path d="M1944 1290 c-17 -11 -39 -38 -49 -60 -42 -92 23 -190 125 -190 76 0
140 62 140 134 0 40 -34 99 -68 119 -40 23 -109 22 -148 -3z m150 -21 c37 -29
57 -103 39 -141 -22 -43 -74 -78 -116 -78 -21 0 -37 5 -37 10 0 6 -6 10 -14
10 -8 0 -26 14 -41 32 -23 28 -27 39 -23 80 4 39 12 54 38 78 42 38 112 42
154 9z"/>
<path d="M4582 2319 c-76 -39 -114 -116 -76 -153 31 -32 74 -13 74 34 0 28 32
63 68 74 31 10 28 42 -5 53 -21 7 -37 4 -61 -8z"/>
<path d="M3200 1221 c-66 -10 -190 -81 -262 -149 -45 -42 -118 -162 -100 -162
22 0 135 65 148 85 27 42 140 91 237 104 100 13 204 6 230 -17 22 -20 32 -10
17 18 -7 12 -10 33 -7 46 3 16 0 24 -9 24 -8 0 -14 6 -14 14 0 34 -129 53
-240 37z"/>
<path d="M1215 1170 c-4 -7 -9 -58 -12 -115 -5 -123 3 -145 76 -228 28 -32 51
-62 51 -67 0 -13 34 -21 55 -14 25 10 15 62 -29 155 -20 42 -36 83 -36 90 0 7
-11 29 -25 50 -14 20 -31 58 -38 84 -12 48 -29 66 -42 45z"/>
<path d="M3890 859 c-14 -6 -40 -8 -58 -5 -23 3 -32 1 -29 -7 2 -7 14 -14 28
-15 32 -5 39 -13 64 -72 21 -51 140 -210 157 -210 6 0 32 14 59 32 57 37 63
62 22 100 -16 14 -57 55 -91 91 -94 99 -104 105 -152 86z"/>
</g>
</svg>
